#N canvas 521 185 893 647 10;
#N canvas 87 154 247 179 Gem.init 0;
#X obj 118 46 loadbang;
#X msg 118 81 reset;
#X obj 118 113 outlet;
#X connect 0 0 1 0;
#X connect 1 0 2 0;
#X restore 56 77 pd Gem.init;
#N canvas 596 28 682 322 gemwin 0;
#X obj 102 122 tgl 15 0 \$0-gemstart \$0-gemstart empty 17 7 0 10 -262144
-1 -1 1 1;
#X obj 102 161 r \$0-gemstart;
#X obj 102 182 select 1 0;
#X msg 102 214 create \, 1;
#X msg 177 215 destroy;
#X obj 102 239 t a;
#X obj 318 54 inlet;
#X obj 318 255 gemwin;
#X obj 318 100 t a a;
#X obj 318 287 outlet;
#X obj 350 128 route create destroy;
#X obj 350 150 t b;
#X msg 350 172 1;
#X obj 390 150 t b;
#X msg 390 172 0;
#X obj 350 195 t f;
#X msg 350 219 set \$1;
#X text 118 122 rendering;
#X msg 429 201 dimen 800 600;
#X msg 128 42 0;
#X msg 159 42 2;
#X msg 188 42 4;
#X msg 219 42 8;
#X msg 170 72 FSAA \$1 \, create \, 1;
#X obj 257 219 r view_mess;
#X connect 1 0 2 0;
#X connect 2 0 3 0;
#X connect 2 1 4 0;
#X connect 3 0 5 0;
#X connect 4 0 5 0;
#X connect 5 0 8 0;
#X connect 6 0 8 0;
#X connect 7 0 9 0;
#X connect 8 0 7 0;
#X connect 8 1 10 0;
#X connect 10 0 11 0;
#X connect 10 1 13 0;
#X connect 11 0 12 0;
#X connect 12 0 15 0;
#X connect 13 0 14 0;
#X connect 14 0 15 0;
#X connect 15 0 16 0;
#X connect 16 0 0 0;
#X connect 18 0 7 0;
#X connect 19 0 23 0;
#X connect 20 0 23 0;
#X connect 21 0 23 0;
#X connect 22 0 23 0;
#X connect 23 0 5 0;
#X connect 24 0 7 0;
#X coords 0 -1 1 1 85 40 1 100 100;
#X restore 26 94 pd gemwin;
#X obj 362 178 translateXYZ 0 0 -4;
#N canvas 700 22 407 295 init 0;
#X obj 106 175 outlet;
#X obj 106 68 loadbang;
#X msg 105 118 type FLOAT \, dimen 1024 1024 \, rectangle 1;
#X connect 1 0 2 0;
#X connect 2 0 0 0;
#X restore 382 137 pd init;
#X obj 362 158 gemframebuffer;
#X obj 362 290 scaleXYZ 4 4 1;
#X obj 362 311 mesh_square 10 10;
#X obj 376 224 loadbang;
#X msg 376 246 rectangle 0;
#X obj 362 270 pix_texture;
#X obj 375 96 loadbang;
#X obj 362 74 gemhead;
#X floatatom 518 186 5 0 0 0 - - -;
#X msg 375 117 texunit 4;
#N canvas 851 62 589 635 shader3 0;
#X obj 94 500 glsl_program;
#X obj 94 340 glsl_fragment;
#X obj 94 160 glsl_vertex;
#X obj 172 400 pack 0 0;
#X obj 162 200 change;
#X obj 182 375 change;
#X msg 172 420 link \$1 \$2;
#X obj 162 220 t b f;
#X obj 176 444 print linking;
#X obj 94 66 inlet;
#X obj 94 530 outlet;
#X obj 464 245 inlet;
#X floatatom 182 179 0 0 0 0 - - -;
#X floatatom 234 377 0 0 0 0 - - -;
#X msg 56 472 print;
#X obj 246 86 change -1;
#X msg 246 65 1;
#X obj 246 106 t b;
#X obj 246 46 gemhead 1;
#X obj 175 524 change;
#X obj 175 548 t b;
#X obj 175 571 outlet;
#X msg 246 135 open fetching.vert;
#X msg 291 160 open fetching.frag;
#X msg 324 429 MyTex 4;
#X msg 336 451 MyTex1 0;
#X connect 0 0 10 0;
#X connect 0 1 19 0;
#X connect 1 0 0 0;
#X connect 1 1 5 0;
#X connect 1 1 13 0;
#X connect 2 0 1 0;
#X connect 2 1 4 0;
#X connect 2 1 12 0;
#X connect 3 0 6 0;
#X connect 4 0 7 0;
#X connect 5 0 3 0;
#X connect 6 0 0 0;
#X connect 6 0 8 0;
#X connect 7 0 3 0;
#X connect 7 1 3 1;
#X connect 9 0 2 0;
#X connect 11 0 0 0;
#X connect 14 0 0 0;
#X connect 15 0 17 0;
#X connect 16 0 15 0;
#X connect 17 0 22 0;
#X connect 17 0 23 0;
#X connect 18 0 16 0;
#X connect 19 0 20 0;
#X connect 20 0 21 0;
#X connect 20 0 24 0;
#X connect 20 0 25 0;
#X connect 22 0 2 0;
#X connect 23 0 1 0;
#X connect 24 0 0 0;
#X connect 25 0 0 0;
#X restore 602 134 pd shader3;
#X obj 602 79 gemhead;
#X obj 602 386 pix_texture;
#X obj 602 492 rotateXYZ;
#X floatatom 620 452 5 0 0 0 - - -;
#X obj 694 406 tgl 15 0 empty empty empty 17 7 0 10 -262144 -1 -1 0
1;
#X floatatom 636 464 5 0 0 0 - - -;
#X obj 694 430 metro 29;
#X obj 602 417 translateXYZ;
#X floatatom 671 364 5 0 0 0 - - -;
#X msg 632 288 quality \$1;
#X obj 632 269 tgl 15 0 empty empty empty 0 -6 0 8 -262144 -1 -1 0
1;
#X obj 632 228 tgl 15 0 empty empty empty 0 -6 0 8 -262144 -1 -1 0
1;
#X msg 632 247 rectangle \$1;
#X obj 633 186 tgl 15 0 empty empty empty 0 -6 0 8 -262144 -1 -1 0
1;
#X msg 633 207 repeat \$1;
#X msg 463 472 draw default;
#X obj 602 552 mesh_square 10;
#X msg 463 448 draw line;
#X msg 395 501 grid \$1;
#X floatatom 395 479 5 0 0 0 - - -;
#X floatatom 747 372 5 0 0 0 - - -;
#X obj 694 457 f;
#X obj 602 524 scaleXYZ 5 5 1;
#X obj 727 457 + 0.1;
#X floatatom 747 484 5 0 0 0 - - -;
#X floatatom 768 421 5 0 0 0 - - -;
#N canvas 20 100 362 426 mousemove 0;
#X obj 129 8 gemmouse;
#X obj 136 88 pack;
#X obj 136 110 spigot;
#X obj 136 131 unpack;
#X obj 136 196 t f f;
#X obj 36 16 gemkeyname;
#X obj 36 39 pack 0 s;
#X obj 36 62 route 1;
#X obj 36 84 route space;
#X msg 36 107 0;
#X msg 136 365 view \$2 \$3 \$1 0 0 0 0 1 0;
#X obj 136 173 +;
#X obj 136 221 * -1;
#X obj 201 237 t f f;
#X obj 201 174 +;
#X obj 201 262 * -1;
#X obj 36 129 t f f f;
#X obj 136 388 s view_mess;
#X text 61 106 reset;
#N canvas 292 198 304 356 coordinates 0;
#X obj 89 52 inlet;
#X obj 94 331 outlet;
#X obj 193 62 atan;
#X msg 193 41 1;
#X obj 193 84 / 45;
#X obj 193 20 loadbang;
#X text 94 29 r phi theta;
#X obj 89 78 unpack 0 0 0;
#X obj 128 123 *;
#X obj 168 123 *;
#X obj 120 197 cos;
#X obj 150 198 sin;
#X obj 120 166 t f f;
#X obj 183 198 cos;
#X obj 213 199 sin;
#X obj 183 167 t f f;
#X obj 120 230 *;
#X obj 150 231 *;
#X obj 85 275 *;
#X obj 125 275 *;
#X obj 174 277 *;
#X obj 66 242 t f f f;
#X obj 91 308 pack 0 0 0;
#X connect 0 0 7 0;
#X connect 2 0 4 0;
#X connect 3 0 2 0;
#X connect 4 0 9 1;
#X connect 4 0 8 1;
#X connect 5 0 3 0;
#X connect 7 0 21 0;
#X connect 7 1 8 0;
#X connect 7 2 9 0;
#X connect 8 0 12 0;
#X connect 9 0 15 0;
#X connect 10 0 16 0;
#X connect 11 0 17 0;
#X connect 12 0 10 0;
#X connect 12 1 11 0;
#X connect 13 0 16 1;
#X connect 13 0 17 1;
#X connect 14 0 20 1;
#X connect 15 0 13 0;
#X connect 15 1 14 0;
#X connect 16 0 18 1;
#X connect 17 0 19 1;
#X connect 18 0 22 0;
#X connect 19 0 22 1;
#X connect 20 0 22 2;
#X connect 21 0 18 0;
#X connect 21 1 19 0;
#X connect 21 2 20 0;
#X connect 22 0 1 0;
#X restore 136 310 pd coordinates;
#X obj 136 249 t b f;
#X obj 136 289 pack 4 0 0;
#X obj 177 46 t f f;
#X obj 177 67 -;
#X obj 136 45 t f f;
#X obj 136 66 -;
#X obj 278 57 s stay_cube;
#X obj 278 35 select 1;
#X obj 201 151 * 0.5;
#X obj 136 153 * 0.5;
#X obj 201 209 clip -90 90;
#X connect 0 0 24 0;
#X connect 0 1 22 0;
#X connect 0 2 2 1;
#X connect 0 4 27 0;
#X connect 1 0 2 0;
#X connect 2 0 3 0;
#X connect 3 0 29 0;
#X connect 3 1 28 0;
#X connect 4 0 12 0;
#X connect 4 1 11 1;
#X connect 5 0 6 0;
#X connect 5 1 6 1;
#X connect 6 0 7 0;
#X connect 7 0 8 0;
#X connect 8 0 9 0;
#X connect 9 0 16 0;
#X connect 10 0 17 0;
#X connect 11 0 4 0;
#X connect 12 0 20 0;
#X connect 13 0 15 0;
#X connect 13 1 14 1;
#X connect 14 0 30 0;
#X connect 15 0 21 2;
#X connect 16 0 11 0;
#X connect 16 1 11 1;
#X connect 16 1 14 0;
#X connect 16 2 14 1;
#X connect 19 0 10 0;
#X connect 20 0 21 0;
#X connect 20 1 21 1;
#X connect 21 0 19 0;
#X connect 22 0 23 1;
#X connect 22 1 23 0;
#X connect 23 0 1 1;
#X connect 24 0 25 1;
#X connect 24 1 25 0;
#X connect 25 0 1 0;
#X connect 27 0 26 0;
#X connect 28 0 14 0;
#X connect 29 0 11 0;
#X connect 30 0 13 0;
#X restore 718 44 pd mousemove;
#X floatatom 659 60 5 0 0 0 - - -;
#X msg 659 92 myMultiply \$1;
#X msg 395 456 120;
#X obj 349 206 pix_video;
#X floatatom 657 335 5 0 0 0 - - -;
#X floatatom 633 331 5 0 0 0 - - -;
#X obj 244 230 pix_gray;
#X obj 395 425 loadbang;
#X obj 659 2 loadbang;
#X obj 463 424 loadbang;
#X msg 659 31 8;
#X connect 0 0 1 0;
#X connect 2 0 45 0;
#X connect 3 0 4 0;
#X connect 4 0 2 0;
#X connect 4 1 12 0;
#X connect 4 1 16 1;
#X connect 5 0 6 0;
#X connect 7 0 8 0;
#X connect 8 0 9 0;
#X connect 9 0 5 0;
#X connect 10 0 13 0;
#X connect 11 0 4 0;
#X connect 13 0 4 0;
#X connect 14 0 16 0;
#X connect 15 0 14 0;
#X connect 16 0 22 0;
#X connect 17 0 37 0;
#X connect 18 0 17 1;
#X connect 19 0 21 0;
#X connect 20 0 17 2;
#X connect 21 0 36 0;
#X connect 22 0 17 0;
#X connect 23 0 22 3;
#X connect 24 0 16 0;
#X connect 25 0 24 0;
#X connect 26 0 27 0;
#X connect 27 0 16 0;
#X connect 28 0 29 0;
#X connect 29 0 16 0;
#X connect 30 0 31 0;
#X connect 32 0 31 0;
#X connect 33 0 31 0;
#X connect 34 0 33 0;
#X connect 35 0 21 1;
#X connect 36 0 17 3;
#X connect 36 0 38 0;
#X connect 37 0 31 0;
#X connect 38 0 36 1;
#X connect 39 0 37 1;
#X connect 39 0 37 2;
#X connect 40 0 38 1;
#X connect 42 0 43 0;
#X connect 43 0 14 1;
#X connect 44 0 34 0;
#X connect 45 0 48 0;
#X connect 46 0 22 2;
#X connect 47 0 22 1;
#X connect 48 0 9 0;
#X connect 49 0 44 0;
#X connect 50 0 52 0;
#X connect 51 0 32 0;
#X connect 52 0 42 0;
